# xmcd
#
# Track frame offsets:
#	150
#	13485
#	26843
#	38801
#	51165
#	63505
#	75060
#	90952
#	100057
#	117242
#	131355
#	146990
#	158939
#	169324
#	178914
#	191254
#	202430
#	212307
#	225540
#	239766
#
# Disc length: 3327 seconds
#
# Revision: 1
# Processed by: cddbd v1.5.2PL0 Copyright (c) Steve Scherf et al.
# Submitted via: audiograbber 1.83.01
#
DISCID=180cfd14
DTITLE=Various Artist - Country Masters Disk 2
DYEAR=1900
DGENRE=Country
TTITLE0=Kenny Rogers - 01 - Ruby, Don't Take Your Love To Town
TTITLE1=Lynn Anderson - 02 - Rose Garden
TTITLE2=Jody Miller - 03 - Queen of the House
TTITLE3=Sandy Posey - 04 - Single Girl
TTITLE4=Freddy Fender - 05 - Wasted Days and Wasted Nights
TTITLE5=Sammi Smith - 06 - Help Me Make It Through The Night
TTITLE6=Tom T. Hall - 07 - Old Dogs, Children, And Watermellon Wine
TTITLE7=Frankie Laine - 08 - Rawhide
TTITLE8=Ray Price - 09 - For The Good Times
TTITLE9=Don Fardon - 10 - Indian Reservation
TTITLE10=Cal Smith - 11 - Country Bumpkin
TTITLE11=Skeeter Davis - 12 - The End of the World
TTITLE12=George Hamilton IV - 13 - Abilene
TTITLE13=Charley Pride - 14 - Kiss An Angel Good Morning
TTITLE14=Jeanne Purett - 15 - Satin Sheets
TTITLE15=Don Gibson - 16 - Oh, Lonesome Me
TTITLE16=Hank Locklin - 17 - Please Help Me, I'm Falling
TTITLE17=Wanda Jackson - 18 - I Fall To Pieces
TTITLE18=B.J. Thomas - 19 - I'm So Lonesome I Could Cry
TTITLE19=Ned Miller - 20 - From A Jack To A King
EXTD=
EXTT0=
EXTT1=
EXTT2=
EXTT3=
EXTT4=
EXTT5=
EXTT6=
EXTT7=
EXTT8=
EXTT9=
EXTT10=
EXTT11=
EXTT12=
EXTT13=
EXTT14=
EXTT15=
EXTT16=
EXTT17=
EXTT18=
EXTT19=
PLAYORDER=
